<svg width="17" height="17" viewBox="0 0 17 17" fill="none" xmlns="http://www.w3.org/2000/svg">
<path fill-rule="evenodd" clip-rule="evenodd" d="M8.40002 16.5C10.5218 16.5 12.5566 15.6571 14.0569 14.1569C15.5572 12.6566 16.4 10.6217 16.4 8.5C16.4 6.37827 15.5572 4.34344 14.0569 2.84315C12.5566 1.34285 10.5218 0.5 8.40002 0.5C6.27829 0.5 4.24346 1.34285 2.74317 2.84315C1.24288 4.34344 0.400024 6.37827 0.400024 8.5C0.400024 10.6217 1.24288 12.6566 2.74317 14.1569C4.24346 15.6571 6.27829 16.5 8.40002 16.5ZM12.107 7.207C12.2892 7.0184 12.39 6.7658 12.3877 6.5036C12.3854 6.2414 12.2803 5.99059 12.0948 5.80518C11.9094 5.61977 11.6586 5.5146 11.3964 5.51233C11.1342 5.51005 10.8816 5.61084 10.693 5.793L7.40002 9.086L6.10702 7.793C5.91842 7.61084 5.66582 7.51005 5.40362 7.51233C5.14143 7.5146 4.89061 7.61977 4.70521 7.80518C4.5198 7.99059 4.41463 8.2414 4.41235 8.5036C4.41007 8.7658 4.51087 9.0184 4.69302 9.207L6.69302 11.207C6.88055 11.3945 7.13486 11.4998 7.40002 11.4998C7.66519 11.4998 7.9195 11.3945 8.10702 11.207L12.107 7.207Z" fill="#7E3AF2"/>
</svg>
